<mxfile host="Electron" agent="Mozilla/5.0 (X11; Linux x86_64) AppleWebKit/537.36 (KHTML, like Gecko) draw.io/28.0.6 Chrome/138.0.7204.100 Electron/37.2.3 Safari/537.36" version="28.0.6">
  <diagram name="Page-1" id="iw7caXtn3NFkWfniOaT9">
    <mxGraphModel dx="1677" dy="2103" grid="1" gridSize="10" guides="1" tooltips="1" connect="1" arrows="1" fold="1" page="1" pageScale="1" pageWidth="850" pageHeight="1100" math="1" shadow="0">
      <root>
        <mxCell id="0" />
        <mxCell id="1" parent="0" />
        <mxCell id="Ta42sJbfAk6aiund59AM-14" value="" style="endArrow=blockThin;html=1;rounded=0;endFill=1;strokeWidth=2;" edge="1" parent="1">
          <mxGeometry width="50" height="50" relative="1" as="geometry">
            <mxPoint x="620" y="160" as="sourcePoint" />
            <mxPoint x="1120" y="160" as="targetPoint" />
          </mxGeometry>
        </mxCell>
        <mxCell id="Ta42sJbfAk6aiund59AM-15" value="" style="endArrow=blockThin;html=1;rounded=0;endFill=1;strokeWidth=2;" edge="1" parent="1">
          <mxGeometry width="50" height="50" relative="1" as="geometry">
            <mxPoint x="860" y="200" as="sourcePoint" />
            <mxPoint x="860" y="-50" as="targetPoint" />
          </mxGeometry>
        </mxCell>
        <mxCell id="Ta42sJbfAk6aiund59AM-16" value="" style="curved=1;endArrow=none;html=1;rounded=0;endFill=0;strokeWidth=3;strokeColor=#FF0000;" edge="1" parent="1">
          <mxGeometry width="50" height="50" relative="1" as="geometry">
            <mxPoint x="860" as="sourcePoint" />
            <mxPoint x="1060" y="160" as="targetPoint" />
            <Array as="points">
              <mxPoint x="880" />
              <mxPoint x="900" y="30" />
              <mxPoint x="930" y="110" />
              <mxPoint x="940" y="160" />
              <mxPoint x="970" y="210" />
              <mxPoint x="990" y="220" />
              <mxPoint x="1020" y="210" />
              <mxPoint x="1040" y="190" />
            </Array>
          </mxGeometry>
        </mxCell>
        <mxCell id="Ta42sJbfAk6aiund59AM-17" value="" style="curved=1;endArrow=none;html=1;rounded=0;endFill=0;strokeWidth=3;strokeColor=#FF0000;" edge="1" parent="1">
          <mxGeometry width="50" height="50" relative="1" as="geometry">
            <mxPoint x="860" as="sourcePoint" />
            <mxPoint x="660" y="160" as="targetPoint" />
            <Array as="points">
              <mxPoint x="840" />
              <mxPoint x="820" y="30" />
              <mxPoint x="790" y="110" />
              <mxPoint x="780" y="160" />
              <mxPoint x="750" y="210" />
              <mxPoint x="730" y="220" />
              <mxPoint x="700" y="210" />
              <mxPoint x="680" y="190" />
            </Array>
          </mxGeometry>
        </mxCell>
        <mxCell id="Ta42sJbfAk6aiund59AM-23" value="" style="endArrow=oval;html=1;rounded=0;strokeColor=#0000FF;endFill=1;strokeWidth=3;" edge="1" parent="1">
          <mxGeometry width="50" height="50" relative="1" as="geometry">
            <mxPoint x="680" y="160" as="sourcePoint" />
            <mxPoint x="680" y="190" as="targetPoint" />
          </mxGeometry>
        </mxCell>
        <mxCell id="Ta42sJbfAk6aiund59AM-24" value="" style="endArrow=oval;html=1;rounded=0;strokeColor=#0000FF;endFill=1;strokeWidth=3;" edge="1" parent="1">
          <mxGeometry width="50" height="50" relative="1" as="geometry">
            <mxPoint x="700" y="160" as="sourcePoint" />
            <mxPoint x="700" y="210" as="targetPoint" />
          </mxGeometry>
        </mxCell>
        <mxCell id="Ta42sJbfAk6aiund59AM-25" value="" style="endArrow=oval;html=1;rounded=0;strokeColor=#0000FF;endFill=1;strokeWidth=3;" edge="1" parent="1">
          <mxGeometry width="50" height="50" relative="1" as="geometry">
            <mxPoint x="720" y="160" as="sourcePoint" />
            <mxPoint x="720" y="220" as="targetPoint" />
          </mxGeometry>
        </mxCell>
        <mxCell id="Ta42sJbfAk6aiund59AM-26" value="" style="endArrow=oval;html=1;rounded=0;strokeColor=#0000FF;endFill=1;strokeWidth=3;" edge="1" parent="1">
          <mxGeometry width="50" height="50" relative="1" as="geometry">
            <mxPoint x="740" y="160" as="sourcePoint" />
            <mxPoint x="740" y="210" as="targetPoint" />
          </mxGeometry>
        </mxCell>
        <mxCell id="Ta42sJbfAk6aiund59AM-28" value="" style="endArrow=oval;html=1;rounded=0;strokeColor=#0000FF;endFill=1;strokeWidth=3;" edge="1" parent="1">
          <mxGeometry width="50" height="50" relative="1" as="geometry">
            <mxPoint x="760" y="160" as="sourcePoint" />
            <mxPoint x="760" y="190" as="targetPoint" />
          </mxGeometry>
        </mxCell>
        <mxCell id="Ta42sJbfAk6aiund59AM-29" value="" style="endArrow=oval;html=1;rounded=0;strokeColor=#0000FF;endFill=1;strokeWidth=3;" edge="1" parent="1">
          <mxGeometry width="50" height="50" relative="1" as="geometry">
            <mxPoint x="800" y="160" as="sourcePoint" />
            <mxPoint x="800" y="90" as="targetPoint" />
          </mxGeometry>
        </mxCell>
        <mxCell id="Ta42sJbfAk6aiund59AM-30" value="" style="endArrow=oval;html=1;rounded=0;strokeColor=#0000FF;endFill=1;strokeWidth=3;" edge="1" parent="1">
          <mxGeometry width="50" height="50" relative="1" as="geometry">
            <mxPoint x="780" y="160" as="sourcePoint" />
            <mxPoint x="780" y="150" as="targetPoint" />
          </mxGeometry>
        </mxCell>
        <mxCell id="Ta42sJbfAk6aiund59AM-31" value="" style="endArrow=oval;html=1;rounded=0;strokeColor=#0000FF;endFill=1;strokeWidth=3;" edge="1" parent="1">
          <mxGeometry width="50" height="50" relative="1" as="geometry">
            <mxPoint x="820" y="160" as="sourcePoint" />
            <mxPoint x="820" y="40" as="targetPoint" />
          </mxGeometry>
        </mxCell>
        <mxCell id="Ta42sJbfAk6aiund59AM-32" value="" style="endArrow=oval;html=1;rounded=0;strokeColor=#0000FF;endFill=1;strokeWidth=3;" edge="1" parent="1">
          <mxGeometry width="50" height="50" relative="1" as="geometry">
            <mxPoint x="840" y="160" as="sourcePoint" />
            <mxPoint x="840" y="10" as="targetPoint" />
          </mxGeometry>
        </mxCell>
        <mxCell id="Ta42sJbfAk6aiund59AM-33" value="" style="endArrow=oval;html=1;rounded=0;strokeColor=#0000FF;endFill=1;strokeWidth=3;" edge="1" parent="1">
          <mxGeometry width="50" height="50" relative="1" as="geometry">
            <mxPoint x="860" y="160" as="sourcePoint" />
            <mxPoint x="860" as="targetPoint" />
          </mxGeometry>
        </mxCell>
        <mxCell id="Ta42sJbfAk6aiund59AM-56" value="" style="rounded=0;whiteSpace=wrap;html=1;fillColor=#00CC00;strokeColor=none;opacity=30;" vertex="1" parent="1">
          <mxGeometry x="60" y="160" width="20" height="30" as="geometry" />
        </mxCell>
        <mxCell id="Ta42sJbfAk6aiund59AM-35" value="" style="endArrow=oval;html=1;rounded=0;strokeColor=#0000FF;endFill=1;strokeWidth=3;" edge="1" parent="1">
          <mxGeometry width="50" height="50" relative="1" as="geometry">
            <mxPoint x="1039.9999999999998" y="160" as="sourcePoint" />
            <mxPoint x="1039.9999999999998" y="190" as="targetPoint" />
          </mxGeometry>
        </mxCell>
        <mxCell id="Ta42sJbfAk6aiund59AM-36" value="" style="endArrow=oval;html=1;rounded=0;strokeColor=#0000FF;endFill=1;strokeWidth=3;" edge="1" parent="1">
          <mxGeometry width="50" height="50" relative="1" as="geometry">
            <mxPoint x="1019.9999999999998" y="160" as="sourcePoint" />
            <mxPoint x="1019.9999999999998" y="210" as="targetPoint" />
          </mxGeometry>
        </mxCell>
        <mxCell id="Ta42sJbfAk6aiund59AM-37" value="" style="endArrow=oval;html=1;rounded=0;strokeColor=#0000FF;endFill=1;strokeWidth=3;" edge="1" parent="1">
          <mxGeometry width="50" height="50" relative="1" as="geometry">
            <mxPoint x="999.9999999999998" y="160" as="sourcePoint" />
            <mxPoint x="999.9999999999998" y="220" as="targetPoint" />
          </mxGeometry>
        </mxCell>
        <mxCell id="Ta42sJbfAk6aiund59AM-38" value="" style="endArrow=oval;html=1;rounded=0;strokeColor=#0000FF;endFill=1;strokeWidth=3;" edge="1" parent="1">
          <mxGeometry width="50" height="50" relative="1" as="geometry">
            <mxPoint x="979.9999999999998" y="160" as="sourcePoint" />
            <mxPoint x="979.9999999999998" y="210" as="targetPoint" />
          </mxGeometry>
        </mxCell>
        <mxCell id="Ta42sJbfAk6aiund59AM-39" value="" style="endArrow=oval;html=1;rounded=0;strokeColor=#0000FF;endFill=1;strokeWidth=3;" edge="1" parent="1">
          <mxGeometry width="50" height="50" relative="1" as="geometry">
            <mxPoint x="959.9999999999998" y="160" as="sourcePoint" />
            <mxPoint x="959.9999999999998" y="190" as="targetPoint" />
          </mxGeometry>
        </mxCell>
        <mxCell id="Ta42sJbfAk6aiund59AM-40" value="" style="endArrow=oval;html=1;rounded=0;strokeColor=#0000FF;endFill=1;strokeWidth=3;" edge="1" parent="1">
          <mxGeometry width="50" height="50" relative="1" as="geometry">
            <mxPoint x="919.9999999999998" y="160" as="sourcePoint" />
            <mxPoint x="919.9999999999998" y="90" as="targetPoint" />
          </mxGeometry>
        </mxCell>
        <mxCell id="Ta42sJbfAk6aiund59AM-41" value="" style="endArrow=oval;html=1;rounded=0;strokeColor=#0000FF;endFill=1;strokeWidth=3;" edge="1" parent="1">
          <mxGeometry width="50" height="50" relative="1" as="geometry">
            <mxPoint x="939.9999999999998" y="160" as="sourcePoint" />
            <mxPoint x="939.9999999999998" y="150" as="targetPoint" />
          </mxGeometry>
        </mxCell>
        <mxCell id="Ta42sJbfAk6aiund59AM-42" value="" style="endArrow=oval;html=1;rounded=0;strokeColor=#0000FF;endFill=1;strokeWidth=3;" edge="1" parent="1">
          <mxGeometry width="50" height="50" relative="1" as="geometry">
            <mxPoint x="899.9999999999998" y="160" as="sourcePoint" />
            <mxPoint x="899.9999999999998" y="40" as="targetPoint" />
          </mxGeometry>
        </mxCell>
        <mxCell id="Ta42sJbfAk6aiund59AM-43" value="" style="endArrow=oval;html=1;rounded=0;strokeColor=#0000FF;endFill=1;strokeWidth=3;" edge="1" parent="1">
          <mxGeometry width="50" height="50" relative="1" as="geometry">
            <mxPoint x="879.9999999999998" y="160" as="sourcePoint" />
            <mxPoint x="879.9999999999998" y="10" as="targetPoint" />
          </mxGeometry>
        </mxCell>
        <mxCell id="Ta42sJbfAk6aiund59AM-57" value="" style="endArrow=blockThin;html=1;rounded=0;endFill=1;strokeWidth=2;" edge="1" parent="1">
          <mxGeometry width="50" height="50" relative="1" as="geometry">
            <mxPoint x="20" y="160" as="sourcePoint" />
            <mxPoint x="520" y="160" as="targetPoint" />
          </mxGeometry>
        </mxCell>
        <mxCell id="Ta42sJbfAk6aiund59AM-58" value="" style="endArrow=blockThin;html=1;rounded=0;endFill=1;strokeWidth=2;" edge="1" parent="1">
          <mxGeometry width="50" height="50" relative="1" as="geometry">
            <mxPoint x="260" y="200" as="sourcePoint" />
            <mxPoint x="260" y="-50" as="targetPoint" />
          </mxGeometry>
        </mxCell>
        <mxCell id="Ta42sJbfAk6aiund59AM-61" value="" style="endArrow=oval;html=1;rounded=0;strokeColor=#0000FF;endFill=1;strokeWidth=1;endSize=3;" edge="1" parent="1">
          <mxGeometry width="50" height="50" relative="1" as="geometry">
            <mxPoint x="80" y="160" as="sourcePoint" />
            <mxPoint x="80" y="190" as="targetPoint" />
          </mxGeometry>
        </mxCell>
        <mxCell id="Ta42sJbfAk6aiund59AM-62" value="" style="endArrow=oval;html=1;rounded=0;strokeColor=#0000FF;endFill=1;strokeWidth=1;endSize=3;" edge="1" parent="1">
          <mxGeometry width="50" height="50" relative="1" as="geometry">
            <mxPoint x="100" y="160" as="sourcePoint" />
            <mxPoint x="100" y="210" as="targetPoint" />
          </mxGeometry>
        </mxCell>
        <mxCell id="Ta42sJbfAk6aiund59AM-63" value="" style="endArrow=oval;html=1;rounded=0;strokeColor=#0000FF;endFill=1;strokeWidth=1;endSize=3;" edge="1" parent="1">
          <mxGeometry width="50" height="50" relative="1" as="geometry">
            <mxPoint x="120" y="160" as="sourcePoint" />
            <mxPoint x="120" y="220" as="targetPoint" />
          </mxGeometry>
        </mxCell>
        <mxCell id="Ta42sJbfAk6aiund59AM-64" value="" style="endArrow=oval;html=1;rounded=0;strokeColor=#0000FF;endFill=1;strokeWidth=1;endSize=3;" edge="1" parent="1">
          <mxGeometry width="50" height="50" relative="1" as="geometry">
            <mxPoint x="140" y="160" as="sourcePoint" />
            <mxPoint x="140" y="210" as="targetPoint" />
          </mxGeometry>
        </mxCell>
        <mxCell id="Ta42sJbfAk6aiund59AM-65" value="" style="endArrow=oval;html=1;rounded=0;strokeColor=#0000FF;endFill=1;strokeWidth=1;endSize=3;" edge="1" parent="1">
          <mxGeometry width="50" height="50" relative="1" as="geometry">
            <mxPoint x="160" y="160" as="sourcePoint" />
            <mxPoint x="160" y="190" as="targetPoint" />
          </mxGeometry>
        </mxCell>
        <mxCell id="Ta42sJbfAk6aiund59AM-66" value="" style="endArrow=oval;html=1;rounded=0;strokeColor=#0000FF;endFill=1;strokeWidth=1;endSize=3;" edge="1" parent="1">
          <mxGeometry width="50" height="50" relative="1" as="geometry">
            <mxPoint x="200" y="160" as="sourcePoint" />
            <mxPoint x="200" y="90" as="targetPoint" />
          </mxGeometry>
        </mxCell>
        <mxCell id="Ta42sJbfAk6aiund59AM-67" value="" style="endArrow=oval;html=1;rounded=0;strokeColor=#0000FF;endFill=1;strokeWidth=1;endSize=3;" edge="1" parent="1">
          <mxGeometry width="50" height="50" relative="1" as="geometry">
            <mxPoint x="180" y="160" as="sourcePoint" />
            <mxPoint x="180" y="150" as="targetPoint" />
          </mxGeometry>
        </mxCell>
        <mxCell id="Ta42sJbfAk6aiund59AM-68" value="" style="endArrow=oval;html=1;rounded=0;strokeColor=#0000FF;endFill=1;strokeWidth=1;endSize=3;" edge="1" parent="1">
          <mxGeometry width="50" height="50" relative="1" as="geometry">
            <mxPoint x="220" y="160" as="sourcePoint" />
            <mxPoint x="220" y="40" as="targetPoint" />
          </mxGeometry>
        </mxCell>
        <mxCell id="Ta42sJbfAk6aiund59AM-69" value="" style="endArrow=oval;html=1;rounded=0;strokeColor=#0000FF;endFill=1;strokeWidth=1;endSize=3;" edge="1" parent="1">
          <mxGeometry width="50" height="50" relative="1" as="geometry">
            <mxPoint x="240" y="160" as="sourcePoint" />
            <mxPoint x="240" y="10" as="targetPoint" />
          </mxGeometry>
        </mxCell>
        <mxCell id="Ta42sJbfAk6aiund59AM-70" value="" style="endArrow=oval;html=1;rounded=0;strokeColor=#0000FF;endFill=1;strokeWidth=1;endSize=3;" edge="1" parent="1">
          <mxGeometry width="50" height="50" relative="1" as="geometry">
            <mxPoint x="260" y="160" as="sourcePoint" />
            <mxPoint x="260" as="targetPoint" />
          </mxGeometry>
        </mxCell>
        <mxCell id="Ta42sJbfAk6aiund59AM-71" value="" style="endArrow=oval;html=1;rounded=0;strokeColor=#0000FF;endFill=1;strokeWidth=1;endSize=3;" edge="1" parent="1">
          <mxGeometry width="50" height="50" relative="1" as="geometry">
            <mxPoint x="439.9999999999998" y="160" as="sourcePoint" />
            <mxPoint x="439.9999999999998" y="190" as="targetPoint" />
          </mxGeometry>
        </mxCell>
        <mxCell id="Ta42sJbfAk6aiund59AM-72" value="" style="endArrow=oval;html=1;rounded=0;strokeColor=#0000FF;endFill=1;strokeWidth=1;endSize=3;" edge="1" parent="1">
          <mxGeometry width="50" height="50" relative="1" as="geometry">
            <mxPoint x="419.9999999999998" y="160" as="sourcePoint" />
            <mxPoint x="419.9999999999998" y="210" as="targetPoint" />
          </mxGeometry>
        </mxCell>
        <mxCell id="Ta42sJbfAk6aiund59AM-73" value="" style="endArrow=oval;html=1;rounded=0;strokeColor=#0000FF;endFill=1;strokeWidth=1;endSize=3;" edge="1" parent="1">
          <mxGeometry width="50" height="50" relative="1" as="geometry">
            <mxPoint x="399.9999999999998" y="160" as="sourcePoint" />
            <mxPoint x="399.9999999999998" y="220" as="targetPoint" />
          </mxGeometry>
        </mxCell>
        <mxCell id="Ta42sJbfAk6aiund59AM-74" value="" style="endArrow=oval;html=1;rounded=0;strokeColor=#0000FF;endFill=1;strokeWidth=1;endSize=3;" edge="1" parent="1">
          <mxGeometry width="50" height="50" relative="1" as="geometry">
            <mxPoint x="379.9999999999998" y="160" as="sourcePoint" />
            <mxPoint x="379.9999999999998" y="210" as="targetPoint" />
          </mxGeometry>
        </mxCell>
        <mxCell id="Ta42sJbfAk6aiund59AM-75" value="" style="endArrow=oval;html=1;rounded=0;strokeColor=#0000FF;endFill=1;strokeWidth=1;endSize=3;" edge="1" parent="1">
          <mxGeometry width="50" height="50" relative="1" as="geometry">
            <mxPoint x="359.9999999999998" y="160" as="sourcePoint" />
            <mxPoint x="359.9999999999998" y="190" as="targetPoint" />
          </mxGeometry>
        </mxCell>
        <mxCell id="Ta42sJbfAk6aiund59AM-76" value="" style="endArrow=oval;html=1;rounded=0;strokeColor=#0000FF;endFill=1;strokeWidth=1;endSize=3;" edge="1" parent="1">
          <mxGeometry width="50" height="50" relative="1" as="geometry">
            <mxPoint x="319.9999999999998" y="160" as="sourcePoint" />
            <mxPoint x="319.9999999999998" y="90" as="targetPoint" />
          </mxGeometry>
        </mxCell>
        <mxCell id="Ta42sJbfAk6aiund59AM-77" value="" style="endArrow=oval;html=1;rounded=0;strokeColor=#0000FF;endFill=1;strokeWidth=1;endSize=3;" edge="1" parent="1">
          <mxGeometry width="50" height="50" relative="1" as="geometry">
            <mxPoint x="339.9999999999998" y="160" as="sourcePoint" />
            <mxPoint x="339.9999999999998" y="150" as="targetPoint" />
          </mxGeometry>
        </mxCell>
        <mxCell id="Ta42sJbfAk6aiund59AM-78" value="" style="endArrow=oval;html=1;rounded=0;strokeColor=#0000FF;endFill=1;strokeWidth=1;endSize=3;" edge="1" parent="1">
          <mxGeometry width="50" height="50" relative="1" as="geometry">
            <mxPoint x="299.9999999999998" y="160" as="sourcePoint" />
            <mxPoint x="299.9999999999998" y="40" as="targetPoint" />
          </mxGeometry>
        </mxCell>
        <mxCell id="Ta42sJbfAk6aiund59AM-79" value="" style="endArrow=oval;html=1;rounded=0;strokeColor=#0000FF;endFill=1;strokeWidth=1;endSize=3;" edge="1" parent="1">
          <mxGeometry width="50" height="50" relative="1" as="geometry">
            <mxPoint x="279.9999999999998" y="160" as="sourcePoint" />
            <mxPoint x="279.9999999999998" y="10" as="targetPoint" />
          </mxGeometry>
        </mxCell>
        <mxCell id="Ta42sJbfAk6aiund59AM-80" value="" style="rounded=0;whiteSpace=wrap;html=1;fillColor=#00CC00;strokeColor=none;opacity=30;" vertex="1" parent="1">
          <mxGeometry x="80" y="160" width="20" height="50" as="geometry" />
        </mxCell>
        <mxCell id="Ta42sJbfAk6aiund59AM-83" value="" style="rounded=0;whiteSpace=wrap;html=1;fillColor=#00CC00;strokeColor=none;opacity=30;" vertex="1" parent="1">
          <mxGeometry x="100" y="160" width="20" height="60" as="geometry" />
        </mxCell>
        <mxCell id="Ta42sJbfAk6aiund59AM-84" value="" style="rounded=0;whiteSpace=wrap;html=1;fillColor=#00CC00;strokeColor=none;opacity=30;" vertex="1" parent="1">
          <mxGeometry x="120" y="160" width="20" height="50" as="geometry" />
        </mxCell>
        <mxCell id="Ta42sJbfAk6aiund59AM-85" value="" style="rounded=0;whiteSpace=wrap;html=1;fillColor=#00CC00;strokeColor=none;opacity=30;" vertex="1" parent="1">
          <mxGeometry x="140" y="160" width="20" height="30" as="geometry" />
        </mxCell>
        <mxCell id="Ta42sJbfAk6aiund59AM-86" value="" style="rounded=0;whiteSpace=wrap;html=1;fillColor=#00CC00;strokeColor=none;opacity=30;" vertex="1" parent="1">
          <mxGeometry x="180" y="130" width="20" height="30" as="geometry" />
        </mxCell>
        <mxCell id="Ta42sJbfAk6aiund59AM-87" value="" style="rounded=0;whiteSpace=wrap;html=1;fillColor=#00CC00;strokeColor=none;opacity=30;" vertex="1" parent="1">
          <mxGeometry x="200" y="90" width="20" height="70" as="geometry" />
        </mxCell>
        <mxCell id="Ta42sJbfAk6aiund59AM-88" value="" style="rounded=0;whiteSpace=wrap;html=1;fillColor=#00CC00;strokeColor=none;opacity=30;" vertex="1" parent="1">
          <mxGeometry x="220" y="40" width="20" height="120" as="geometry" />
        </mxCell>
        <mxCell id="Ta42sJbfAk6aiund59AM-89" value="" style="rounded=0;whiteSpace=wrap;html=1;fillColor=#00CC00;strokeColor=none;opacity=30;" vertex="1" parent="1">
          <mxGeometry x="240" y="10" width="20" height="150" as="geometry" />
        </mxCell>
        <mxCell id="Ta42sJbfAk6aiund59AM-90" value="" style="rounded=0;whiteSpace=wrap;html=1;fillColor=#00CC00;strokeColor=none;opacity=30;" vertex="1" parent="1">
          <mxGeometry x="260" width="20" height="160" as="geometry" />
        </mxCell>
        <mxCell id="Ta42sJbfAk6aiund59AM-93" value="" style="rounded=0;whiteSpace=wrap;html=1;fillColor=#00CC00;strokeColor=none;opacity=30;" vertex="1" parent="1">
          <mxGeometry x="280" y="10" width="20" height="150" as="geometry" />
        </mxCell>
        <mxCell id="Ta42sJbfAk6aiund59AM-94" value="" style="rounded=0;whiteSpace=wrap;html=1;fillColor=#00CC00;strokeColor=none;opacity=30;" vertex="1" parent="1">
          <mxGeometry x="300" y="40" width="20" height="120" as="geometry" />
        </mxCell>
        <mxCell id="Ta42sJbfAk6aiund59AM-95" value="" style="rounded=0;whiteSpace=wrap;html=1;fillColor=#00CC00;strokeColor=none;opacity=30;" vertex="1" parent="1">
          <mxGeometry x="320" y="90" width="20" height="70" as="geometry" />
        </mxCell>
        <mxCell id="Ta42sJbfAk6aiund59AM-97" value="" style="rounded=0;whiteSpace=wrap;html=1;fillColor=#00CC00;strokeColor=none;opacity=30;" vertex="1" parent="1">
          <mxGeometry x="360" y="160" width="20" height="30" as="geometry" />
        </mxCell>
        <mxCell id="Ta42sJbfAk6aiund59AM-98" value="" style="rounded=0;whiteSpace=wrap;html=1;fillColor=#00CC00;strokeColor=none;opacity=30;" vertex="1" parent="1">
          <mxGeometry x="380" y="160" width="20" height="50" as="geometry" />
        </mxCell>
        <mxCell id="Ta42sJbfAk6aiund59AM-99" value="" style="rounded=0;whiteSpace=wrap;html=1;fillColor=#00CC00;strokeColor=none;opacity=30;" vertex="1" parent="1">
          <mxGeometry x="400" y="160" width="20" height="60" as="geometry" />
        </mxCell>
        <mxCell id="Ta42sJbfAk6aiund59AM-100" value="" style="rounded=0;whiteSpace=wrap;html=1;fillColor=#00CC00;strokeColor=none;opacity=30;" vertex="1" parent="1">
          <mxGeometry x="420" y="160" width="20" height="50" as="geometry" />
        </mxCell>
        <mxCell id="Ta42sJbfAk6aiund59AM-101" value="" style="rounded=0;whiteSpace=wrap;html=1;fillColor=#00CC00;strokeColor=none;opacity=30;" vertex="1" parent="1">
          <mxGeometry x="440" y="160" width="20" height="30" as="geometry" />
        </mxCell>
        <mxCell id="Ta42sJbfAk6aiund59AM-103" value="&lt;font style=&quot;font-size: 24px; color: rgb(0, 204, 0);&quot;&gt;$$\int dt$$&lt;/font&gt;" style="text;html=1;align=center;verticalAlign=middle;whiteSpace=wrap;rounded=0;" vertex="1" parent="1">
          <mxGeometry x="470" width="60" height="30" as="geometry" />
        </mxCell>
        <mxCell id="Ta42sJbfAk6aiund59AM-104" value="&lt;font style=&quot;font-size: 24px; color: rgb(0, 0, 255);&quot;&gt;$$T_s\sum_n$$&lt;/font&gt;" style="text;html=1;align=center;verticalAlign=middle;whiteSpace=wrap;rounded=0;" vertex="1" parent="1">
          <mxGeometry x="590" y="10" width="60" height="30" as="geometry" />
        </mxCell>
        <mxCell id="Ta42sJbfAk6aiund59AM-105" value="&lt;font style=&quot;color: rgb(0, 0, 0); font-size: 32px;&quot;&gt;&lt;b style=&quot;&quot;&gt;$$=$$&lt;/b&gt;&lt;/font&gt;" style="text;html=1;align=center;verticalAlign=middle;whiteSpace=wrap;rounded=0;" vertex="1" parent="1">
          <mxGeometry x="530" width="60" height="30" as="geometry" />
        </mxCell>
        <mxCell id="Ta42sJbfAk6aiund59AM-59" value="" style="curved=1;endArrow=none;html=1;rounded=0;endFill=0;strokeWidth=3;strokeColor=#FF0000;" edge="1" parent="1">
          <mxGeometry width="50" height="50" relative="1" as="geometry">
            <mxPoint x="260" as="sourcePoint" />
            <mxPoint x="460" y="160" as="targetPoint" />
            <Array as="points">
              <mxPoint x="280" />
              <mxPoint x="300" y="30" />
              <mxPoint x="330" y="110" />
              <mxPoint x="340" y="160" />
              <mxPoint x="370" y="210" />
              <mxPoint x="390" y="220" />
              <mxPoint x="420" y="210" />
              <mxPoint x="440" y="190" />
            </Array>
          </mxGeometry>
        </mxCell>
        <mxCell id="Ta42sJbfAk6aiund59AM-60" value="" style="curved=1;endArrow=none;html=1;rounded=0;endFill=0;strokeWidth=3;strokeColor=#FF0000;" edge="1" parent="1">
          <mxGeometry width="50" height="50" relative="1" as="geometry">
            <mxPoint x="260" as="sourcePoint" />
            <mxPoint x="60" y="160" as="targetPoint" />
            <Array as="points">
              <mxPoint x="240" />
              <mxPoint x="220" y="30" />
              <mxPoint x="190" y="110" />
              <mxPoint x="180" y="160" />
              <mxPoint x="150" y="210" />
              <mxPoint x="130" y="220" />
              <mxPoint x="100" y="210" />
              <mxPoint x="80" y="190" />
            </Array>
          </mxGeometry>
        </mxCell>
        <mxCell id="Ta42sJbfAk6aiund59AM-106" value="&lt;font style=&quot;font-size: 24px; color: rgb(0, 0, 0);&quot;&gt;$$t$$&lt;/font&gt;" style="text;html=1;align=center;verticalAlign=middle;whiteSpace=wrap;rounded=0;" vertex="1" parent="1">
          <mxGeometry x="480" y="160" width="60" height="30" as="geometry" />
        </mxCell>
        <mxCell id="Ta42sJbfAk6aiund59AM-107" value="&lt;font style=&quot;font-size: 24px; color: rgb(0, 0, 0);&quot;&gt;$$n$$&lt;/font&gt;" style="text;html=1;align=center;verticalAlign=middle;whiteSpace=wrap;rounded=0;" vertex="1" parent="1">
          <mxGeometry x="1080" y="160" width="60" height="30" as="geometry" />
        </mxCell>
        <mxCell id="Ta42sJbfAk6aiund59AM-108" value="&lt;font style=&quot;font-size: 16px; color: rgb(255, 0, 255);&quot;&gt;$$T_s$$&lt;/font&gt;" style="text;html=1;align=center;verticalAlign=middle;whiteSpace=wrap;rounded=0;" vertex="1" parent="1">
          <mxGeometry x="250" y="160" width="60" height="30" as="geometry" />
        </mxCell>
        <mxCell id="Ta42sJbfAk6aiund59AM-109" value="&lt;font style=&quot;color: rgb(0, 204, 0); font-size: 20px;&quot;&gt;$$y(t)=x(t)*h(t)$$&lt;/font&gt;" style="text;html=1;align=center;verticalAlign=middle;whiteSpace=wrap;rounded=0;" vertex="1" parent="1">
          <mxGeometry x="240" y="240" width="60" height="30" as="geometry" />
        </mxCell>
        <mxCell id="Ta42sJbfAk6aiund59AM-110" value="&lt;font style=&quot;color: rgb(0, 0, 255); font-size: 20px;&quot;&gt;$$y[n]=x[n]*h[t]$$&lt;/font&gt;" style="text;html=1;align=center;verticalAlign=middle;whiteSpace=wrap;rounded=0;" vertex="1" parent="1">
          <mxGeometry x="830" y="220" width="60" height="30" as="geometry" />
        </mxCell>
        <mxCell id="Ta42sJbfAk6aiund59AM-111" value="&lt;font style=&quot;color: rgb(0, 0, 255); font-size: 16px;&quot;&gt;$$x[n]=x(nT_s)$$&lt;/font&gt;" style="text;html=1;align=center;verticalAlign=middle;whiteSpace=wrap;rounded=0;" vertex="1" parent="1">
          <mxGeometry x="890" y="260" width="60" height="30" as="geometry" />
        </mxCell>
        <mxCell id="Ta42sJbfAk6aiund59AM-113" value="&lt;font style=&quot;color: rgb(0, 0, 255); font-size: 16px;&quot;&gt;$$h[n]=h(nT_s)$$&lt;/font&gt;" style="text;html=1;align=center;verticalAlign=middle;whiteSpace=wrap;rounded=0;" vertex="1" parent="1">
          <mxGeometry x="890" y="290" width="60" height="30" as="geometry" />
        </mxCell>
      </root>
    </mxGraphModel>
  </diagram>
</mxfile>
